<svg  version="1.0" xmlns="http://www.w3.org/2000/svg" xmlns:xlink="http://www.w3.org/1999/xlink" width="100%" height="100%" viewBox="0 0 340.000000 250.000000" fill='#fff'>
<g fill="#fff" class="basesvg" transform="translate(56.69499969482422,103.71500015258789)"><g data-gra="path-name" fill-rule="" class="tp-name"><g transform="scale(1)"><g><path d="M13.59 0.45L13.59 0.45Q10.42 0.45 7.88-0.34 5.34-1.13 3.03-3.12L3.03-3.12Q2.45-3.62 2.13-4.26 1.81-4.89 1.81-5.52L1.81-5.52Q1.81-6.57 2.56-7.36 3.31-8.15 4.44-8.15L4.44-8.15Q5.3-8.15 5.98-7.61L5.98-7.61Q7.7-6.2 9.4-5.48 11.09-4.75 13.59-4.75L13.59-4.75Q15.26-4.75 16.66-5.28 18.07-5.8 18.93-6.68 19.79-7.56 19.79-8.69L19.79-8.69Q19.79-10.05 18.97-11 18.16-11.96 16.48-12.61 14.81-13.27 12.23-13.63L12.23-13.63Q9.78-13.99 7.92-14.74 6.07-15.49 4.82-16.64 3.58-17.8 2.94-19.36 2.31-20.92 2.31-22.87L2.31-22.87Q2.31-25.81 3.83-27.9 5.34-29.98 7.92-31.07 10.51-32.15 13.63-32.15L13.63-32.15Q16.57-32.15 19.09-31.27 21.6-30.39 23.19-29.03L23.19-29.03Q24.5-27.99 24.5-26.63L24.5-26.63Q24.5-25.63 23.73-24.82 22.96-24 21.92-24L21.92-24Q21.24-24 20.7-24.41L20.7-24.41Q19.97-25.04 18.75-25.61 17.53-26.17 16.17-26.56 14.81-26.94 13.63-26.94L13.63-26.94Q11.68-26.94 10.35-26.45 9.01-25.95 8.33-25.09 7.65-24.23 7.65-23.1L7.65-23.1Q7.65-21.74 8.45-20.85 9.24-19.97 10.73-19.45 12.23-18.93 14.31-18.52L14.31-18.52Q17.03-18.02 19.09-17.34 21.15-16.66 22.51-15.6 23.86-14.54 24.54-12.93 25.22-11.32 25.22-9.01L25.22-9.01Q25.22-6.07 23.59-3.94 21.96-1.81 19.31-0.68 16.66 0.45 13.59 0.45ZM30.25-23.77L30.25-23.77 40.98-23.77Q42.07-23.77 42.79-23.05 43.52-22.33 43.52-21.24L43.52-21.24Q43.52-20.2 42.79-19.49 42.07-18.79 40.98-18.79L40.98-18.79 30.25-18.79Q29.16-18.79 28.44-19.52 27.71-20.24 27.71-21.33L27.71-21.33Q27.71-22.37 28.44-23.07 29.16-23.77 30.25-23.77ZM35.1-29.43L35.1-29.43Q36.27-29.43 37.02-28.64 37.77-27.85 37.77-26.67L37.77-26.67 37.77-6.52Q37.77-5.89 38.02-5.48 38.27-5.07 38.7-4.89 39.13-4.71 39.62-4.71L39.62-4.71Q40.17-4.71 40.62-4.91 41.07-5.12 41.66-5.12L41.66-5.12Q42.3-5.12 42.82-4.53 43.34-3.94 43.34-2.9L43.34-2.9Q43.34-1.63 41.96-0.82 40.57 0 38.99 0L38.99 0Q38.04 0 36.88-0.16 35.73-0.32 34.71-0.93 33.69-1.54 33.01-2.81 32.33-4.08 32.33-6.29L32.33-6.29 32.33-26.67Q32.33-27.85 33.13-28.64 33.92-29.43 35.1-29.43ZM66.48-24.23L66.48-24.23Q67.66-24.23 68.42-23.43 69.19-22.64 69.19-21.46L69.19-21.46 69.19-2.22Q69.19 1.95 67.63 4.42 66.07 6.88 63.44 7.97 60.82 9.06 57.56 9.06L57.56 9.06Q56.11 9.06 54.48 8.83 52.85 8.6 51.81 8.15L51.81 8.15Q50.45 7.56 49.93 6.68 49.41 5.8 49.72 4.8L49.72 4.8Q50.13 3.49 51.04 3.01 51.94 2.54 52.94 2.9L52.94 2.9Q53.66 3.12 54.84 3.6 56.02 4.08 57.56 4.08L57.56 4.08Q59.64 4.08 61.02 3.51 62.4 2.94 63.1 1.61 63.81 0.27 63.81-2.04L63.81-2.04 63.81-5.07 64.76-3.99Q63.99-2.49 62.83-1.52 61.68-0.54 60.09-0.05 58.51 0.45 56.47 0.45L56.47 0.45Q54.07 0.45 52.28-0.66 50.49-1.77 49.5-3.74 48.5-5.71 48.5-8.24L48.5-8.24 48.5-21.46Q48.5-22.64 49.27-23.43 50.04-24.23 51.22-24.23L51.22-24.23Q52.39-24.23 53.16-23.43 53.93-22.64 53.93-21.46L53.93-21.46 53.93-9.87Q53.93-6.93 55.22-5.73 56.52-4.53 58.82-4.53L58.82-4.53Q60.41-4.53 61.5-5.14 62.58-5.75 63.17-6.95 63.76-8.15 63.76-9.87L63.76-9.87 63.76-21.46Q63.76-22.64 64.53-23.43 65.3-24.23 66.48-24.23ZM80.97-30.75L80.97-2.76Q80.97-1.58 80.18-0.79 79.38 0 78.21 0L78.21 0Q77.07 0 76.3-0.79 75.53-1.58 75.53-2.76L75.53-2.76 75.53-30.75Q75.53-31.93 76.33-32.72 77.12-33.51 78.3-33.51L78.3-33.51Q79.47-33.51 80.22-32.72 80.97-31.93 80.97-30.75L80.97-30.75ZM98.04 0.45L98.04 0.45Q94.19 0.45 91.36-1.15 88.53-2.76 87.01-5.52 85.5-8.29 85.5-11.77L85.5-11.77Q85.5-15.85 87.15-18.73 88.8-21.6 91.47-23.14 94.15-24.68 97.14-24.68L97.14-24.68Q99.44-24.68 101.51-23.73 103.57-22.78 105.15-21.13 106.74-19.47 107.66-17.3 108.59-15.13 108.59-12.68L108.59-12.68Q108.55-11.59 107.73-10.91 106.92-10.23 105.83-10.23L105.83-10.23 88.53-10.23 87.17-14.76 103.79-14.76 102.8-13.86 102.8-15.08Q102.71-16.39 101.87-17.43 101.03-18.48 99.78-19.09 98.54-19.7 97.14-19.7L97.14-19.7Q95.78-19.7 94.6-19.34 93.42-18.97 92.56-18.11 91.7-17.25 91.2-15.8 90.7-14.36 90.7-12.14L90.7-12.14Q90.7-9.69 91.72-7.99 92.74-6.29 94.35-5.41 95.96-4.53 97.77-4.53L97.77-4.53Q99.44-4.53 100.44-4.8 101.44-5.07 102.05-5.46 102.66-5.84 103.16-6.11L103.16-6.11Q103.97-6.52 104.7-6.52L104.7-6.52Q105.69-6.52 106.35-5.84 107.01-5.16 107.01-4.26L107.01-4.26Q107.01-3.03 105.74-2.04L105.74-2.04Q104.56-1.04 102.43-0.29 100.31 0.45 98.04 0.45ZM122.72-24.68L122.72-24.68Q124.62-24.68 126.21-24.09 127.79-23.5 128.95-22.6 130.1-21.69 130.76-20.76 131.42-19.83 131.42-19.2L131.42-19.2 130.24-18.61 130.24-21.92Q130.24-23.1 131.01-23.89 131.78-24.68 132.96-24.68L132.96-24.68Q134.13-24.68 134.9-23.91 135.67-23.14 135.67-21.92L135.67-21.92 135.67-1.77Q135.67 2.17 133.97 4.55 132.28 6.93 129.51 7.99 126.75 9.06 123.58 9.06L123.58 9.06Q122.68 9.06 121.23 8.83 119.78 8.6 118.46 8.29 117.15 7.97 116.47 7.7L116.47 7.7Q115.11 7.11 114.59 6.23 114.07 5.34 114.39 4.35L114.39 4.35Q114.8 3.03 115.7 2.56 116.61 2.08 117.6 2.45L117.6 2.45Q118.06 2.58 119.1 2.99 120.14 3.4 121.39 3.74 122.63 4.08 123.58 4.08L123.58 4.08Q126.98 4.08 128.61 2.72 130.24 1.36 130.24-1.04L130.24-1.04 130.24-4.98 130.78-4.57Q130.78-3.99 130.17-3.15 129.56-2.31 128.49-1.49 127.43-0.68 125.98-0.11 124.53 0.45 122.9 0.45L122.9 0.45Q119.69 0.45 117.11-1.15 114.52-2.76 113.03-5.59 111.54-8.42 111.54-12.09L111.54-12.09Q111.54-15.8 113.03-18.63 114.52-21.46 117.06-23.07 119.6-24.68 122.72-24.68ZM123.58-19.7L123.58-19.7Q121.54-19.7 120-18.7 118.46-17.71 117.6-15.99 116.74-14.26 116.74-12.09L116.74-12.09Q116.74-9.96 117.6-8.24 118.46-6.52 120-5.52 121.54-4.53 123.58-4.53L123.58-4.53Q125.66-4.53 127.2-5.52 128.74-6.52 129.6-8.24 130.46-9.96 130.46-12.09L130.46-12.09Q130.46-14.26 129.6-15.99 128.74-17.71 127.2-18.7 125.66-19.7 123.58-19.7ZM159.18-24.23L159.18-24.23Q160.35-24.23 161.12-23.43 161.89-22.64 161.89-21.46L161.89-21.46 161.89-9.96Q161.89-5.16 159.22-2.35 156.55 0.45 151.52 0.45L151.52 0.45Q146.5 0.45 143.85-2.35 141.2-5.16 141.2-9.96L141.2-9.96 141.2-21.46Q141.2-22.64 141.97-23.43 142.74-24.23 143.91-24.23L143.91-24.23Q145.09-24.23 145.86-23.43 146.63-22.64 146.63-21.46L146.63-21.46 146.63-9.96Q146.63-7.2 147.85-5.86 149.08-4.53 151.52-4.53L151.52-4.53Q154.01-4.53 155.24-5.86 156.46-7.2 156.46-9.96L156.46-9.96 156.46-21.46Q156.46-22.64 157.23-23.43 158-24.23 159.18-24.23ZM172.9-21.46L172.9-2.76Q172.9-1.58 172.13-0.79 171.36 0 170.18 0L170.18 0Q169 0 168.23-0.79 167.46-1.58 167.46-2.76L167.46-2.76 167.46-21.46Q167.46-22.64 168.23-23.43 169-24.23 170.18-24.23L170.18-24.23Q171.36-24.23 172.13-23.43 172.9-22.64 172.9-21.46L172.9-21.46ZM170.13-27.17L170.13-27.17Q168.59-27.17 167.96-27.67 167.33-28.17 167.33-29.43L167.33-29.43 167.33-30.3Q167.33-31.61 168.03-32.08 168.73-32.56 170.18-32.56L170.18-32.56Q171.76-32.56 172.4-32.06 173.03-31.56 173.03-30.3L173.03-30.3 173.03-29.43Q173.03-28.12 172.35-27.65 171.67-27.17 170.13-27.17ZM198.07-33.51L198.07-33.51Q199.25-33.51 200.02-32.74 200.79-31.97 200.79-30.75L200.79-30.75 200.79-2.76Q200.79-1.58 200.02-0.79 199.25 0 198.07 0L198.07 0Q196.9 0 196.13-0.79 195.36-1.58 195.36-2.76L195.36-2.76 195.36-4.98 196.35-4.57Q196.35-3.99 195.72-3.15 195.09-2.31 194-1.49 192.91-0.68 191.44-0.11 189.97 0.45 188.25 0.45L188.25 0.45Q185.12 0.45 182.59-1.15 180.05-2.76 178.58-5.59 177.11-8.42 177.11-12.09L177.11-12.09Q177.11-15.8 178.58-18.63 180.05-21.46 182.54-23.07 185.03-24.68 188.07-24.68L188.07-24.68Q190.01-24.68 191.64-24.09 193.27-23.5 194.47-22.6 195.67-21.69 196.33-20.76 196.99-19.83 196.99-19.2L196.99-19.2 195.36-18.61 195.36-30.75Q195.36-31.93 196.13-32.72 196.9-33.51 198.07-33.51ZM188.93-4.53L188.93-4.53Q190.92-4.53 192.41-5.52 193.91-6.52 194.75-8.24 195.58-9.96 195.58-12.09L195.58-12.09Q195.58-14.26 194.75-15.99 193.91-17.71 192.41-18.7 190.92-19.7 188.93-19.7L188.93-19.7Q186.98-19.7 185.49-18.7 183.99-17.71 183.15-15.99 182.32-14.26 182.32-12.09L182.32-12.09Q182.32-9.96 183.15-8.24 183.99-6.52 185.49-5.52 186.98-4.53 188.93-4.53ZM217.86 0.45L217.86 0.45Q214.01 0.45 211.18-1.15 208.35-2.76 206.84-5.52 205.32-8.29 205.32-11.77L205.32-11.77Q205.32-15.85 206.97-18.73 208.63-21.6 211.3-23.14 213.97-24.68 216.96-24.68L216.96-24.68Q219.27-24.68 221.33-23.73 223.39-22.78 224.97-21.13 226.56-19.47 227.49-17.3 228.42-15.13 228.42-12.68L228.42-12.68Q228.37-11.59 227.55-10.91 226.74-10.23 225.65-10.23L225.65-10.23 208.35-10.23 207-14.76 223.61-14.76 222.62-13.86 222.62-15.08Q222.53-16.39 221.69-17.43 220.85-18.48 219.61-19.09 218.36-19.7 216.96-19.7L216.96-19.7Q215.6-19.7 214.42-19.34 213.24-18.97 212.38-18.11 211.52-17.25 211.03-15.8 210.53-14.36 210.53-12.14L210.53-12.14Q210.53-9.69 211.55-7.99 212.57-6.29 214.17-5.41 215.78-4.53 217.59-4.53L217.59-4.53Q219.27-4.53 220.26-4.8 221.26-5.07 221.87-5.46 222.48-5.84 222.98-6.11L222.98-6.11Q223.8-6.52 224.52-6.52L224.52-6.52Q225.52-6.52 226.17-5.84 226.83-5.16 226.83-4.26L226.83-4.26Q226.83-3.03 225.56-2.04L225.56-2.04Q224.38-1.04 222.26-0.29 220.13 0.45 217.86 0.45Z" transform="translate(-1.809999942779541, 33.5099983215332)"></path></g> <!----> <!----> <!----> <!----> <!----> <!----> <!----></g></g> <!----></g>
</svg>